<svg width="420" height="274" viewBox="0 0 420 274" fill="none" xmlns="http://www.w3.org/2000/svg">
<g clip-path="url(#clip0_14_310)">
<path d="M382.407 179.269C378.058 180.837 370.43 182.098 361.606 183.093C337.611 185.8 304.751 186.587 304.751 186.587C304.751 186.587 135.763 199.395 9.55976 146.336C9.55976 146.336 -8.78187 136.541 8.39071 123.66C11.0346 121.735 13.8428 120.048 16.7827 118.618L16.9929 118.41C18.9484 116.627 21.0595 115.022 23.3008 113.615C29.8886 109.418 40.9971 104.466 54.4594 106.843L386.519 163.057C386.519 163.057 398.588 173.416 382.407 179.269Z" fill="#FFBA08"/>
<path d="M316.343 154.397L386.294 105.467L416.929 110.998L386.519 163.057C386.519 163.057 317.08 163.114 316.343 154.397Z" fill="#FFBA08"/>
<path d="M141.346 123.108L280.252 85.1843L302.563 90.0203L239.74 117.77L220.012 139.549L141.346 123.108Z" fill="#FFBA08"/>
<path d="M361.606 183.093C337.611 185.8 304.751 186.587 304.751 186.587C304.751 186.587 135.763 199.395 9.5598 146.336C9.5598 146.336 -8.78184 136.541 8.39074 123.66L8.44673 123.9C8.44673 123.9 35.6264 142.576 166.013 158.94L361.606 183.093Z" fill="#F5F8FA"/>
<path d="M339.331 181.866L401.126 207.644L416.708 206.027L379.838 177.868C379.838 177.868 335.066 167.968 339.331 181.866Z" fill="#FFBA08"/>
<path d="M30.9005 126.768C27.9434 126.796 21.2042 121.783 17.015 118.41C18.9706 116.627 21.0817 115.022 23.323 113.615C26.7005 116.249 32.7125 120.514 36.0745 120.374C40.9284 120.209 35.354 126.72 30.9005 126.768Z" fill="#F5F8FA"/>
<path d="M311.456 269.238L271.649 271.037L160.313 194.714L139.645 180.543L129.608 173.657C148.649 157.793 225.708 180.414 225.708 180.414C227.178 181.674 227.633 183.753 227.55 186.045C227.391 190.338 225.339 195.363 224.549 197.171C224.359 197.614 224.242 197.849 224.242 197.849L311.456 269.238Z" fill="#FFBA08"/>
<path d="M376.676 78.9878L369.741 83.3115L373.978 75.7283C372.801 74.7739 371.339 74.2395 369.824 74.2095L369.713 74.2087C369.235 74.2146 368.756 74.1755 368.285 74.0917L365.939 75.5594L366.951 73.7444C365.301 73.1512 363.879 72.0523 362.889 70.6039L358.692 73.2406L361.364 68.4507C358.943 65.4954 355.662 63.6718 352.034 63.6457C347.688 63.6145 343.798 66.1733 341.27 70.1909C340.52 71.394 339.465 72.3768 338.212 73.0392C336.96 73.7017 335.554 74.0201 334.139 73.962L333.908 73.9604C329.109 73.9259 325.181 79.3423 325.132 86.0623C325.084 92.7822 328.934 98.2545 333.733 98.289C334.788 98.2932 335.827 98.0398 336.762 97.5507C338.402 96.7689 340.191 96.3525 342.007 96.3302C343.823 96.308 345.623 96.6804 347.281 97.4218C348.682 98.0639 350.202 98.4035 351.742 98.4183C353.283 98.4332 354.809 98.1232 356.222 97.5083C357.877 96.8043 359.664 96.4646 361.461 96.512C363.259 96.5594 365.025 96.9929 366.64 97.7831C367.562 98.2732 368.588 98.5351 369.632 98.5469C374.431 98.5813 378.359 93.1649 378.408 86.445C378.464 83.8532 377.869 81.2888 376.676 78.9878V78.9878Z" fill="#F5F8FA"/>
<path opacity="0.03" d="M363.563 96.6943C361.059 96.2014 358.466 96.4644 356.112 97.4497C354.701 98.0696 353.176 98.3844 351.636 98.3733C350.096 98.3623 348.576 98.0256 347.175 97.3855C345.517 96.6421 343.717 96.2685 341.901 96.2908C340.085 96.313 338.295 96.7306 336.656 97.5144C335.719 98.002 334.678 98.2553 333.623 98.2526C329.361 98.222 325.844 93.8944 325.148 88.218C326.005 87.6042 326.735 86.8289 327.295 85.9356C329.824 81.9225 333.714 79.3636 338.06 79.3948C342.407 79.4261 346.22 81.9869 348.686 86.0048C349.424 87.219 350.464 88.2211 351.704 88.9131C352.944 89.6052 354.342 89.9636 355.761 89.9535L355.872 89.9543C359.242 89.9697 362.162 92.7107 363.563 96.6943Z" fill="black"/>
<path d="M91.7577 61.2115L88.3013 63.369L90.4152 59.5885C89.8289 59.1098 89.0992 58.8416 88.3428 58.8269L88.2895 58.8265C88.0502 58.8273 87.8112 58.8077 87.5752 58.768L86.4067 59.4975L86.9103 58.6122C86.087 58.3167 85.3778 57.7688 84.8837 57.0464L82.7919 58.3648L84.141 55.9788C83.5923 55.2578 82.8899 54.6684 82.0849 54.2536C81.2798 53.8387 80.3925 53.6089 79.4875 53.5808C77.321 53.5653 75.3805 54.8403 74.1363 56.8448C73.7618 57.4465 73.2343 57.9377 72.6078 58.2683C71.9814 58.5988 71.2784 58.7567 70.5709 58.7259L70.4555 58.7251C68.0625 58.7079 66.1029 61.4139 66.0788 64.765C66.0547 68.1161 67.9753 70.8455 70.3683 70.8627C70.8946 70.8648 71.4135 70.7389 71.8804 70.4958C72.6982 70.1045 73.5912 69.8961 74.4975 69.8849C75.4038 69.8738 76.3017 70.0602 77.1288 70.4313C77.8254 70.7472 78.5805 70.9133 79.3452 70.9188C80.11 70.9243 80.8673 70.7691 81.5684 70.4631C82.3941 70.1116 83.2857 69.9421 84.1826 69.9662C85.0795 69.9903 85.9608 70.2074 86.7664 70.6027C87.226 70.845 87.7362 70.9751 88.2555 70.9823C90.6484 70.9995 92.6081 68.2979 92.6321 64.9468C92.6583 63.648 92.3576 62.3635 91.7577 61.2115Z" fill="#F5F8FA"/>
<path opacity="0.03" d="M85.2165 70.0449C83.9671 69.796 82.6718 69.9276 81.4977 70.4227C80.7961 70.7268 80.039 70.8818 79.2745 70.8778C78.5013 70.872 77.7381 70.7014 77.036 70.3773C76.2083 70.0078 75.3104 69.8226 74.4042 69.8345C73.498 69.8464 72.6053 70.0551 71.7876 70.4462C71.3222 70.6893 70.8047 70.8152 70.2798 70.8132C68.1533 70.7979 66.3973 68.6385 66.0491 65.8093C66.4755 65.5007 66.8398 65.1143 67.1228 64.6703C68.3804 62.6659 70.3209 61.3909 72.4741 61.4063C74.6273 61.4218 76.5405 62.7112 77.7782 64.7068C78.147 65.3136 78.6669 65.814 79.2871 66.159C79.9073 66.5039 80.6065 66.6816 81.3159 66.6745L81.3736 66.6749C83.0474 66.6869 84.516 68.0576 85.2165 70.0449Z" fill="black"/>
<path d="M237.71 17.0981L230.775 21.4218L235.012 13.8386C233.834 12.8842 232.373 12.3498 230.858 12.3198L230.747 12.319C230.268 12.325 229.79 12.2858 229.318 12.2021L226.973 13.6698L227.985 11.8547C226.334 11.2615 224.913 10.1626 223.922 8.7143L219.726 11.3509L222.397 6.56104C219.977 3.60575 216.695 1.78211 213.068 1.75605C208.722 1.72483 204.832 4.28365 202.303 8.30121C201.554 9.50436 200.499 10.4872 199.246 11.1496C197.994 11.812 196.588 12.1304 195.173 12.0724L194.942 12.0707C190.143 12.0362 186.214 17.4527 186.166 24.1726C186.118 30.8925 189.968 36.3649 194.767 36.3993C195.822 36.4036 196.861 36.1501 197.796 35.6611C199.436 34.8793 201.225 34.4629 203.041 34.4406C204.857 34.4184 206.656 34.7908 208.315 35.5322C209.715 36.1743 211.236 36.5138 212.776 36.5287C214.317 36.5436 215.843 36.2335 217.256 35.6186C218.911 34.9147 220.697 34.5749 222.495 34.6224C224.292 34.6698 226.059 35.1033 227.674 35.8935C228.596 36.3836 229.622 36.6454 230.666 36.6572C235.465 36.6917 239.393 31.2752 239.441 24.5553C239.498 21.9636 238.903 19.3991 237.71 17.0981V17.0981Z" fill="#F5F8FA"/>
<path d="M72.7881 197.08L65.8531 201.403L70.0899 193.82C68.9125 192.866 67.451 192.331 65.9363 192.301L65.8253 192.3C65.3464 192.306 64.868 192.267 64.3965 192.184L62.0506 193.651L63.0626 191.836C61.4124 191.243 59.991 190.144 59.0005 188.696L54.8037 191.332L57.4754 186.542C55.0547 183.587 51.7734 181.764 48.1463 181.737C43.7999 181.706 39.91 184.265 37.3815 188.283C36.6316 189.486 35.5767 190.469 34.3241 191.131C33.0716 191.793 31.6661 192.112 30.2507 192.054L30.0198 192.052C25.2206 192.018 21.2924 197.434 21.2441 204.154C21.1958 210.874 25.0458 216.346 29.845 216.381C30.8996 216.385 31.9393 216.132 32.8739 215.642C34.5136 214.861 36.3032 214.444 38.1192 214.422C39.9352 214.4 41.7345 214.772 43.3928 215.514C44.7935 216.156 46.3136 216.495 47.8541 216.51C49.3947 216.525 50.9211 216.215 52.334 215.6C53.9889 214.896 55.7755 214.556 57.573 214.604C59.3704 214.651 61.1367 215.085 62.7523 215.875C63.6742 216.365 64.6999 216.627 65.7437 216.639C70.5429 216.673 74.4711 211.257 74.5194 204.537C74.5762 201.945 73.9809 199.381 72.7881 197.08V197.08Z" fill="#F5F8FA"/>
<path opacity="0.03" d="M224.596 34.8047C222.093 34.3118 219.499 34.5747 217.145 35.5601C215.735 36.18 214.21 36.4948 212.67 36.4837C211.13 36.4726 209.61 36.136 208.208 35.4959C206.551 34.7524 204.751 34.3789 202.935 34.4011C201.118 34.4234 199.329 34.8409 197.69 35.6248C196.753 36.1124 195.712 36.3656 194.656 36.363C190.394 36.3324 186.878 32.0047 186.182 26.3284C187.039 25.7146 187.768 24.9393 188.329 24.0459C190.858 20.0328 194.748 17.474 199.094 17.5052C203.44 17.5365 207.253 20.0973 209.72 24.1152C210.458 25.3294 211.497 26.3314 212.737 27.0235C213.977 27.7156 215.375 28.074 216.795 28.0639L216.906 28.0647C220.276 28.08 223.195 30.8211 224.596 34.8047Z" fill="black"/>
<path opacity="0.03" d="M59.6744 214.786C57.1708 214.293 54.5774 214.556 52.2234 215.541C50.8132 216.161 49.2882 216.476 47.7481 216.465C46.208 216.454 44.6876 216.117 43.2865 215.477C41.6287 214.734 39.8292 214.36 38.0128 214.383C36.1965 214.405 34.4067 214.822 32.7675 215.606C31.8308 216.094 30.7901 216.347 29.7343 216.344C25.4723 216.314 21.9559 211.986 21.2597 206.31C22.1169 205.696 22.8464 204.921 23.4072 204.027C25.9357 200.014 29.8256 197.455 34.172 197.487C38.5183 197.518 42.3315 200.079 44.7978 204.097C45.5357 205.311 46.5754 206.313 47.8154 207.005C49.0554 207.697 50.4535 208.055 51.8732 208.045L51.9842 208.046C55.3539 208.061 58.2734 210.803 59.6744 214.786Z" fill="black"/>
</g>
<defs>
<clipPath id="clip0_14_310">
<rect width="417.147" height="270.744" fill="white" transform="translate(2.0271 0.235596) rotate(0.41158)"/>
</clipPath>
</defs>
</svg>
